<svg width="128" height="40" viewBox="0 0 128 40" fill="none" xmlns="http://www.w3.org/2000/svg">
<path d="M8.53125 7.25L15.9688 25.8125L23.4062 7.25H27.2969V30H24.2969V21.1406L24.5781 11.5781L17.1094 30H14.8125L7.35938 11.625L7.65625 21.1406V30H4.65625V7.25H8.53125ZM35.8125 30H32.8125V7.25H35.8125V30ZM58.7969 30H55.7812L44.3281 12.4688V30H41.3125V7.25H44.3281L55.8125 24.8594V7.25H58.7969V30ZM67.3438 30H64.3438V7.25H67.3438V30ZM80.375 26.0156L86.875 7.25H90.1562L81.7188 30H79.0625L70.6406 7.25H73.9062L80.375 26.0156ZM106.078 19.4844H96.2188V27.5469H107.672V30H93.2188V7.25H107.516V9.71875H96.2188V17.0312H106.078V19.4844ZM114.422 27.5469H125.203V30H111.406V7.25H114.422V27.5469Z" fill="#EA1834" fill-opacity="0.75"/>
</svg>
